<svg width="1200" height="800" viewBox="0 0 1200 800" fill="none" xmlns="http://www.w3.org/2000/svg">
  <rect width="1200" height="800" rx="48" fill="#101827"/>
  <rect width="1200" height="800" rx="48" fill="url(#bg)"/>
  <circle cx="1040" cy="124" r="172" fill="#67E8F9" fill-opacity="0.16"/>
  <circle cx="168" cy="680" r="204" fill="#34D399" fill-opacity="0.16"/>
  <rect x="152" y="168" width="896" height="488" rx="40" fill="#0F172A" fill-opacity="0.4" stroke="#E0F2FE" stroke-opacity="0.2"/>
  <rect x="218" y="246" width="180" height="124" rx="26" fill="#E0F2FE" fill-opacity="0.18" stroke="#E0F2FE" stroke-opacity="0.36"/>
  <rect x="510" y="246" width="180" height="124" rx="26" fill="#E0F2FE" fill-opacity="0.18" stroke="#E0F2FE" stroke-opacity="0.36"/>
  <rect x="802" y="246" width="180" height="124" rx="26" fill="#E0F2FE" fill-opacity="0.18" stroke="#E0F2FE" stroke-opacity="0.36"/>
  <rect x="364" y="460" width="180" height="124" rx="26" fill="#ECFDF5" fill-opacity="0.22" stroke="#ECFDF5" stroke-opacity="0.36"/>
  <rect x="656" y="460" width="180" height="124" rx="26" fill="#ECFDF5" fill-opacity="0.22" stroke="#ECFDF5" stroke-opacity="0.36"/>
  <path d="M398 308H510" stroke="#ECFEFF" stroke-width="10" stroke-linecap="round"/>
  <path d="M690 308H802" stroke="#ECFEFF" stroke-width="10" stroke-linecap="round"/>
  <path d="M454 370V460" stroke="#ECFEFF" stroke-opacity="0.6" stroke-width="10" stroke-linecap="round"/>
  <path d="M746 370V460" stroke="#ECFEFF" stroke-opacity="0.6" stroke-width="10" stroke-linecap="round"/>
  <path d="M544 522H656" stroke="#F0FDF4" stroke-width="10" stroke-linecap="round"/>
  <defs>
    <linearGradient id="bg" x1="119" y1="66" x2="1092" y2="751" gradientUnits="userSpaceOnUse">
      <stop stop-color="#155E75"/>
      <stop offset="0.52" stop-color="#0F766E"/>
      <stop offset="1" stop-color="#111827"/>
    </linearGradient>
  </defs>
</svg>
